<?xml version="1.0" encoding="utf-8"?>
<svg version="1.1" xmlns="http://www.w3.org/2000/svg" xmlns:xlink="http://www.w3.org/1999/xlink" x="0px" y="0px"
	 viewBox="0 0 40.9 43.1" style="enable-background:new 0 0 40.9 43.1;" xml:space="preserve">
<g>
	<rect fill="#670000" width="40.9" height="43.1"/>
	<g>
		<path fill="#B5B7BB" d="M8.8,13.4l-0.2,0.6l-0.2,0.6L7.9,16c-0.2,0.4-0.3,0.8-0.5,1.3c-0.1,0.2-0.1,0.4-0.2,0.6
			c-0.1,0.2-0.1,0.4-0.1,0.7c0-0.5,0.1-0.9,0.2-1.3c0.1-0.4,0.3-0.9,0.4-1.3c0.2-0.4,0.3-0.8,0.5-1.2C8.4,14.2,8.6,13.8,8.8,13.4"/>
		<path fill="#B5B7BB" d="M8.8,28.2c-0.4-0.7-0.7-1.3-1-2.1c-0.3-0.7-0.5-1.4-0.7-2.2c-0.2-0.7-0.3-1.5-0.3-2.3c0-0.4,0-0.8,0-1.1
			c0-0.4,0-0.8,0-1.1l0-0.1l1-0.3l0.5-0.1c0.2-0.1,0.3-0.1,0.5-0.2c-0.3,0.1-0.7,0.2-1,0.4c-0.3,0.1-0.7,0.2-1,0.3l0-0.1
			c0,0.8,0,1.5,0.1,2.3c0,0.4,0.1,0.8,0.1,1.1c0,0.4,0.1,0.8,0.2,1.1c0.2,0.7,0.4,1.5,0.6,2.2C8.2,26.8,8.5,27.5,8.8,28.2"/>
		<path fill="#B5B7BB" d="M16.3,34.3c-0.7-0.2-1.4-0.6-2.1-0.9c-0.7-0.4-1.3-0.8-1.9-1.3c-0.6-0.5-1.2-1-1.7-1.5
			c-0.3-0.3-0.5-0.6-0.8-0.9c-0.2-0.3-0.5-0.6-0.7-0.9l0-0.1l1.5-0.9c0.5-0.3,1-0.6,1.5-0.9c-0.5,0.3-1,0.6-1.5,0.9l-1.5,0.9l0-0.1
			c0.4,0.6,0.9,1.2,1.5,1.7c0.5,0.5,1.1,1,1.7,1.5c0.6,0.5,1.2,0.9,1.9,1.3C14.9,33.6,15.6,34,16.3,34.3"/>
		<path fill="#B5B7BB" d="M10.1,11.8l-0.2,0.8c-0.1,0.3-0.1,0.5-0.2,0.8c-0.1,0.5-0.2,1-0.3,1.5c-0.1,0.5-0.1,1,0,1.6
			c0,0.3,0,0.5,0.1,0.8c0,0.3,0,0.5,0.1,0.8c-0.1-0.5-0.2-1-0.2-1.6c-0.1-0.5-0.1-1.1,0-1.6c0.1-0.5,0.2-1,0.3-1.5
			C9.8,12.8,9.9,12.3,10.1,11.8"/>
		<path fill="#B5B7BB" d="M12.5,25.9c-0.4-0.5-0.7-1.1-1-1.7c-0.3-0.6-0.6-1.2-0.8-1.8c-0.2-0.6-0.4-1.2-0.6-1.9
			c-0.2-0.6-0.3-1.3-0.4-1.9l0.1-0.1l1.8-0.5c0.6-0.2,1.2-0.3,1.8-0.5c-0.6,0.2-1.2,0.4-1.7,0.6c-0.6,0.2-1.2,0.4-1.8,0.6l0.1-0.1
			c0.1,0.6,0.2,1.3,0.4,1.9c0.2,0.6,0.4,1.3,0.6,1.9c0.2,0.6,0.5,1.2,0.8,1.8C11.8,24.8,12.1,25.4,12.5,25.9"/>
		<path fill="#B5B7BB" d="M17.6,31.9c-0.5-0.4-1-0.7-1.4-1.1c-0.5-0.4-0.9-0.8-1.3-1.3c-0.4-0.4-0.8-0.9-1.1-1.4c-0.4-0.5-0.7-1-1-1.5
			l0-0.1l1.5-0.9l1.5-0.9c-0.5,0.3-1,0.7-1.5,1c-0.5,0.3-1,0.7-1.5,1l0-0.1c0.3,0.5,0.6,1,1,1.5c0.4,0.5,0.7,0.9,1.1,1.4
			c0.4,0.5,0.8,0.9,1.2,1.3C16.7,31.1,17.2,31.5,17.6,31.9"/>
		<path fill="#B5B7BB" d="M20.9,35.1c-0.3,0-0.7,0-1,0c-0.3,0-0.7,0-1-0.1c-0.3,0-0.7-0.1-1-0.2c-0.3-0.1-0.7-0.2-1-0.3l0-0.1
			c0.1-0.3,0.3-0.5,0.4-0.8c0.1-0.2,0.3-0.5,0.4-0.7c-0.1,0.2-0.3,0.5-0.4,0.8c-0.1,0.3-0.2,0.5-0.4,0.8l0-0.1
			c0.3,0.1,0.6,0.2,1,0.2c0.3,0.1,0.7,0.1,1,0.2c0.3,0,0.7,0.1,1,0.1C20.2,35,20.6,35.1,20.9,35.1"/>
		<path fill="#B5B7BB" d="M22.1,34.8c-0.4-0.2-0.7-0.3-1-0.5c-0.3-0.2-0.7-0.4-1-0.5c-0.3-0.2-0.7-0.4-1-0.6c-0.3-0.2-0.6-0.4-0.9-0.7
			l0-0.1c0.3-0.4,0.5-0.8,0.8-1.2c0.3-0.4,0.6-0.8,1-1.1c-0.2,0.2-0.3,0.4-0.5,0.6c-0.1,0.2-0.3,0.4-0.4,0.6
			c-0.3,0.4-0.5,0.8-0.8,1.2l0-0.1c0.1,0.1,0.3,0.2,0.4,0.3c0.2,0.1,0.3,0.2,0.5,0.3c0.3,0.2,0.6,0.4,1,0.6l1,0.6
			C21.4,34.4,21.7,34.6,22.1,34.8"/>
		<path fill="#B5B7BB" d="M13.8,16.6c-0.1-0.4-0.2-0.8-0.3-1.2c-0.1-0.4-0.2-0.8-0.3-1.2c-0.1-0.4-0.1-0.8-0.2-1.2
			c-0.1-0.4-0.1-0.8-0.1-1.2l0.1-0.1c0.5-0.1,0.9-0.2,1.4-0.3c0.4-0.1,0.9-0.2,1.3-0.4c-0.2,0.1-0.4,0.2-0.6,0.3s-0.4,0.1-0.7,0.2
			c-0.4,0.1-0.9,0.2-1.4,0.3l0.1-0.1c0,0.4,0.1,0.8,0.1,1.2c0.1,0.4,0.1,0.8,0.2,1.2l0.2,1.2C13.6,15.8,13.7,16.2,13.8,16.6"/>
		<path fill="#B5B7BB" d="M16.3,23.6c-0.3-0.5-0.5-1-0.8-1.5c-0.2-0.5-0.5-1-0.7-1.5c-0.2-0.5-0.4-1-0.6-1.6c-0.2-0.5-0.3-1.1-0.4-1.6
			l0-0.1l1-0.4c0.3-0.1,0.7-0.3,1-0.4l1-0.4c0.3-0.1,0.6-0.3,0.9-0.5c-0.3,0.2-0.6,0.4-0.9,0.5c-0.3,0.2-0.6,0.3-1,0.5
			c-0.3,0.1-0.6,0.3-1,0.4l-1,0.4l0.1-0.1c0.1,0.5,0.2,1.1,0.4,1.6c0.2,0.5,0.3,1.1,0.5,1.6c0.2,0.5,0.4,1,0.6,1.5
			C15.8,22.6,16,23.1,16.3,23.6"/>
		<path fill="#B5B7BB" d="M20,29c-0.4-0.3-0.7-0.7-1-1.1c-0.3-0.4-0.6-0.8-0.9-1.2c-0.1-0.2-0.3-0.4-0.4-0.6c-0.1-0.2-0.3-0.4-0.4-0.6
			c-0.3-0.4-0.5-0.8-0.7-1.3l0-0.1l2-1.2l1-0.6c0.3-0.2,0.7-0.4,1-0.6c-0.6,0.5-1.3,0.9-2,1.3c-0.7,0.4-1.3,0.8-2,1.3l0-0.1
			c0.2,0.4,0.5,0.8,0.7,1.3c0.1,0.2,0.3,0.4,0.4,0.6c0.1,0.2,0.3,0.4,0.4,0.6c0.3,0.4,0.6,0.8,0.9,1.2C19.3,28.2,19.7,28.6,20,29"/>
		<path fill="#B5B7BB" d="M23.5,32.7c-0.3-0.2-0.6-0.5-0.8-0.7c-0.1-0.1-0.3-0.3-0.4-0.4l-0.4-0.4c-0.3-0.3-0.5-0.5-0.7-0.8
			c-0.2-0.3-0.5-0.6-0.7-0.8l0-0.1c0.4-0.4,0.9-0.8,1.3-1.2c0.5-0.4,1-0.7,1.5-1c-0.5,0.3-1,0.7-1.4,1c-0.4,0.4-0.9,0.8-1.3,1.2
			l0-0.1l0.7,0.8l0.7,0.8l0.7,0.8C23,32.2,23.2,32.4,23.5,32.7"/>
		<path fill="#B5B7BB" d="M18.1,14.7c-0.3-0.6-0.7-1.2-1-1.8c-0.3-0.6-0.6-1.2-0.9-1.9l0-0.1c0.4-0.3,0.9-0.6,1.3-1
			c0.2-0.2,0.4-0.3,0.6-0.5c0.2-0.2,0.4-0.4,0.5-0.6c-0.1,0.2-0.3,0.5-0.5,0.7C18,9.6,17.8,9.8,17.6,10c-0.4,0.4-0.8,0.7-1.2,1
			l0-0.1c0.3,0.6,0.6,1.2,0.9,1.9C17.6,13.4,17.9,14,18.1,14.7"/>
		<path fill="#B5B7BB" d="M21,20.7c-0.3-0.4-0.5-0.9-0.7-1.3c-0.2-0.4-0.5-0.9-0.7-1.3c-0.2-0.4-0.4-0.9-0.6-1.3
			c-0.2-0.4-0.4-0.9-0.6-1.4l0-0.1c0.7-0.4,1.4-0.9,2.1-1.3c0.4-0.2,0.7-0.5,1-0.7c0.3-0.2,0.7-0.5,1-0.8c-0.1,0.2-0.3,0.3-0.5,0.4
			c-0.2,0.1-0.3,0.3-0.5,0.4c-0.3,0.2-0.7,0.5-1,0.7c-0.7,0.5-1.4,0.9-2.1,1.4l0-0.1c0.2,0.4,0.5,0.9,0.7,1.3
			c0.2,0.4,0.4,0.9,0.7,1.3c0.2,0.4,0.4,0.9,0.6,1.3L21,20.7z"/>
		<path fill="#B5B7BB" d="M23.6,26.3c-0.2-0.4-0.4-0.8-0.6-1.2c-0.2-0.4-0.4-0.8-0.6-1.2c-0.2-0.4-0.4-0.8-0.6-1.2
			c-0.2-0.4-0.4-0.8-0.6-1.2l0-0.1l2.5-1.5c0.8-0.5,1.7-1,2.5-1.6c-0.8,0.6-1.7,1.1-2.5,1.6c-0.8,0.5-1.7,1.1-2.5,1.6l0-0.1
			c0.2,0.4,0.4,0.8,0.6,1.2c0.2,0.4,0.4,0.8,0.6,1.2c0.2,0.4,0.4,0.8,0.6,1.3C23.3,25.4,23.5,25.9,23.6,26.3"/>
		<path fill="#B5B7BB" d="M25.9,30.9c-0.2-0.3-0.4-0.6-0.5-1c-0.2-0.3-0.3-0.7-0.5-1c-0.2-0.3-0.3-0.7-0.5-1L24,27l0-0.1
			c0.7-0.3,1.4-0.6,2.2-0.9c0.4-0.1,0.7-0.3,1.1-0.4c0.4-0.1,0.8-0.2,1.2-0.2c-0.4,0-0.8,0.1-1.1,0.3c-0.4,0.1-0.7,0.3-1.1,0.4
			c-0.7,0.3-1.4,0.6-2.1,1l0-0.1l0.4,1l0.4,1l0.4,1C25.6,30.3,25.7,30.6,25.9,30.9"/>
		<path fill="#B5B7BB" d="M22.6,11.6c-0.3-0.3-0.6-0.5-0.9-0.8c-0.3-0.3-0.6-0.5-0.9-0.8l-0.9-0.8c-0.3-0.3-0.6-0.6-0.9-0.9l0-0.1
			c0.1-0.2,0.2-0.4,0.4-0.7c0.1-0.1,0.1-0.2,0.2-0.3c0.1-0.1,0.1-0.2,0.2-0.3c-0.1,0.2-0.2,0.5-0.3,0.7c-0.1,0.2-0.2,0.5-0.3,0.7
			l0-0.1C19.4,8.4,19.7,8.7,20,9c0.3,0.3,0.6,0.6,0.9,0.8c0.3,0.3,0.6,0.6,0.9,0.9c0.1,0.1,0.3,0.3,0.4,0.4
			C22.4,11.3,22.5,11.4,22.6,11.6"/>
		<path fill="#B5B7BB" d="M26.7,17.2c-0.3-0.4-0.5-0.9-0.8-1.3c-0.3-0.4-0.6-0.9-0.9-1.3c-0.3-0.4-0.6-0.8-0.9-1.2
			c-0.2-0.2-0.3-0.4-0.5-0.6c-0.2-0.2-0.3-0.4-0.5-0.6l0-0.1c0.4-0.4,0.8-0.8,1.2-1.2c0.2-0.2,0.4-0.4,0.6-0.6
			c0.2-0.2,0.4-0.4,0.6-0.6c-0.3,0.5-0.7,0.9-1.1,1.3c-0.4,0.4-0.8,0.8-1.2,1.2l0-0.1c0.2,0.2,0.4,0.4,0.5,0.6
			c0.2,0.2,0.3,0.4,0.5,0.6c0.3,0.4,0.6,0.8,0.9,1.3c0.3,0.4,0.6,0.9,0.8,1.3C26.3,16.2,26.5,16.7,26.7,17.2"/>
		<path fill="#B5B7BB" d="M29.1,24.6c-0.2-1.2-0.5-2.3-0.8-3.5c-0.2-0.6-0.4-1.1-0.6-1.7c-0.1-0.3-0.2-0.6-0.3-0.8
			c-0.1-0.3-0.2-0.5-0.4-0.8l0-0.1l1.6-1l0.8-0.5c0.3-0.2,0.5-0.3,0.8-0.5c-0.3,0.2-0.5,0.4-0.8,0.6l-0.8,0.5
			c-0.5,0.3-1.1,0.7-1.6,1l0-0.1c0.3,0.5,0.5,1.1,0.7,1.6c0.2,0.6,0.4,1.1,0.6,1.7C28.8,22.3,29,23.4,29.1,24.6"/>
		<path fill="#B5B7BB" d="M32.2,25c-0.5,0-1,0.1-1.5,0.2c-0.2,0-0.5,0.1-0.7,0.1l-0.7,0.1l0.1-0.1c0.1,0.4,0.1,0.8,0.2,1.2
			c0,0.4,0.1,0.8,0.1,1.2c0,0.4,0,0.8,0,1.2c0,0.4,0,0.8,0,1.2l0,0c0.5,0,1,0.1,1.4,0.2c-0.2,0-0.5,0-0.7-0.1l-0.7-0.1l0,0l0-1.2
			l0-1.2c0-0.4,0-0.8-0.1-1.2c0-0.4-0.1-0.8-0.2-1.2l0.1-0.1c0.2,0,0.5-0.1,0.7-0.1c0.3,0,0.5-0.1,0.7-0.1s0.5,0,0.8,0
			C31.7,25,32,25,32.2,25"/>
		<path fill="#B5B7BB" d="M25.4,8.6c-0.2-0.2-0.5-0.3-0.7-0.4l-0.7-0.4c-0.5-0.3-1-0.5-1.4-0.8c0.5,0.2,1,0.4,1.5,0.7
			c0.2,0.1,0.5,0.3,0.7,0.4C25,8.2,25.2,8.4,25.4,8.6"/>
		<path fill="#B5B7BB" d="M30.6,14.9c-0.3-0.5-0.7-1.1-1-1.6c-0.4-0.5-0.7-1-1.1-1.5c-0.4-0.5-0.8-1-1.2-1.4c-0.2-0.2-0.4-0.5-0.7-0.7
			l-0.3-0.3l-0.2-0.2L26,9.1l0,0l0,0l0,0l0,0l0,0c0,0,0-0.1,0,0l0,0l0,0c0.1-0.2,0.3-0.3,0.4-0.5c0.1-0.1,0.1-0.2,0.2-0.3
			c0.1-0.1,0.1-0.2,0.2-0.3c0,0.1-0.1,0.2-0.2,0.3c-0.1,0.1-0.1,0.2-0.2,0.3c-0.1,0.2-0.3,0.3-0.4,0.5l0,0l0,0c0,0,0,0,0,0v0l0,0
			l0,0l0,0l0,0l0.1,0.1l0.2,0.1c0.1,0.1,0.2,0.2,0.4,0.3c0.2,0.2,0.5,0.4,0.7,0.6c0.4,0.5,0.9,0.9,1.3,1.4c0.4,0.5,0.8,1,1.1,1.6
			C30,13.8,30.3,14.3,30.6,14.9"/>
		<path fill="#B5B7BB" d="M33.2,14c-0.4,0.3-0.8,0.5-1.1,0.8L31,15.5l0-0.1c0.4,0.7,0.7,1.4,0.9,2.1c0.3,0.7,0.5,1.5,0.6,2.2
			c0.2,0.7,0.3,1.5,0.4,2.3c0.1,0.8,0.1,1.5,0.1,2.3l0,0l0.9,0l0.5,0c0.2,0,0.3,0,0.5,0c-0.1,0-0.3,0-0.5,0l-0.5,0l-0.9,0l0,0
			c0-0.4,0-0.8-0.1-1.1c0-0.4-0.1-0.8-0.1-1.1c-0.1-0.8-0.2-1.5-0.4-2.2c-0.1-0.4-0.2-0.7-0.3-1.1c-0.1-0.4-0.2-0.7-0.3-1.1
			c-0.2-0.7-0.5-1.4-0.9-2.1l0-0.1l1.2-0.7L33.2,14z"/>
		<path fill="#B5B7BB" d="M32.9,24.9c0,0.4,0,0.8,0,1.3c0,0.4-0.1,0.8-0.2,1.3c-0.1,0.4-0.2,0.8-0.3,1.2c-0.1,0.2-0.1,0.4-0.2,0.6
			c-0.1,0.2-0.2,0.4-0.2,0.6l0.2-0.6c0.1-0.2,0.1-0.4,0.2-0.6c0.1-0.4,0.2-0.8,0.3-1.2c0.1-0.4,0.2-0.8,0.2-1.2
			c0-0.2,0.1-0.4,0.1-0.6C32.9,25.3,32.9,25.1,32.9,24.9"/>
		<path fill="#B5B7BB" d="M22.8,35c0.3-0.7,0.8-1.4,1.3-2c0.6-0.6,1.2-1.1,1.9-1.4c0.7-0.3,1.5-0.6,2.3-0.6c0.4,0,0.8,0,1.2,0
			c0.4,0,0.8,0.1,1.2,0.2c-0.8-0.1-1.6-0.1-2.4,0c-0.8,0.1-1.6,0.3-2.3,0.7c-0.7,0.3-1.4,0.8-1.9,1.4c-0.3,0.3-0.5,0.6-0.8,0.9
			C23.2,34.3,23,34.6,22.8,35"/>
		<path fill="#B5B7BB" d="M18.8,6.9c-0.8,0.2-1.5,0.3-2.2,0.6c-0.7,0.2-1.4,0.5-2.1,0.9c-0.7,0.4-1.3,0.7-2,1.2c-0.6,0.5-1.2,1-1.7,1.5
			l0,0h0l0,0c0,0,0,0,0,0c0,0,0.1,0,0.1,0c0.1,0,0.1,0,0.2,0c0.1,0,0.3,0,0.4,0c0.3,0,0.6,0,0.9,0c-0.3,0-0.6,0-0.9,0
			c-0.2,0-0.3,0-0.5,0c-0.1,0-0.2,0-0.2,0c0,0-0.1,0-0.1,0c0,0,0,0-0.1,0l0,0c0,0,0,0,0,0l0,0c0.2-0.3,0.5-0.6,0.8-0.9
			c0.3-0.3,0.6-0.5,0.9-0.8c0.6-0.5,1.3-0.9,2-1.2c0.7-0.3,1.4-0.6,2.2-0.8C17.3,7.2,18,7,18.8,6.9"/>
		<path fill="#FFFFFF" d="M12.3,35.2c-0.3,0.3-0.5,0.6-0.8,0.8c-0.1,0.1-0.2,0.3-0.4,0.4c-0.1,0.2-0.2,0.3-0.3,0.5c0,0.1,0,0.2,0,0.2
			c0,0,0,0,0,0c0,0,0,0,0.1,0c0.1,0,0.3,0,0.5-0.1c0.4-0.1,0.7-0.3,1-0.4c0.7-0.3,1.4-0.7,2-1c0.7-0.4,1.3-0.7,2-1.1
			c1.3-0.8,2.6-1.5,3.9-2.3c1.3-0.8,2.6-1.6,3.9-2.4c1.3-0.8,2.6-1.6,3.8-2.5c1.3-0.8,2.5-1.7,3.7-2.6c0.6-0.4,1.2-0.9,1.8-1.4
			c0.6-0.5,1.2-1,1.7-1.5c0.3-0.3,0.5-0.5,0.8-0.8c0.1-0.1,0.2-0.3,0.3-0.4c0.1-0.2,0.2-0.3,0.2-0.5c0-0.2,0-0.3-0.2-0.4
			c-0.1-0.1-0.3-0.2-0.5-0.2c-0.4-0.1-0.7-0.1-1.1-0.1c0.4-0.1,0.8-0.1,1.2,0c0.2,0,0.4,0.1,0.6,0.2c0.1,0.1,0.2,0.1,0.2,0.2
			c0.1,0.1,0.1,0.2,0.1,0.3c0,0.2-0.1,0.4-0.1,0.6c-0.1,0.2-0.2,0.4-0.3,0.5c-0.2,0.3-0.5,0.6-0.7,0.9c-1,1.2-2.2,2.2-3.4,3.1
			c-0.3,0.2-0.6,0.5-0.9,0.7c-0.3,0.2-0.6,0.5-0.9,0.7c-0.6,0.5-1.2,0.9-1.9,1.3c-1.3,0.9-2.5,1.7-3.8,2.5c-1.3,0.8-2.6,1.6-3.9,2.4
			c-1.3,0.7-2.7,1.5-4,2.2c-1.4,0.7-2.7,1.3-4.2,1.9c-0.4,0.1-0.7,0.2-1.1,0.3c-0.2,0-0.4,0.1-0.6,0.1c-0.1,0-0.1,0-0.2-0.1
			c-0.1,0-0.1-0.1-0.2-0.2c0-0.1,0-0.2,0-0.2c0-0.1,0-0.1,0.1-0.2c0.1-0.2,0.2-0.3,0.4-0.5c0.1-0.1,0.3-0.3,0.4-0.4
			C11.7,35.7,12,35.5,12.3,35.2"/>
		<path fill="#A6A8AC" d="M5.8,17.2c-0.2,0.3-0.4,0.7-0.6,1c-0.2,0.3-0.4,0.7-0.6,1c-0.2,0.4-0.3,0.7-0.4,1.1c0,0.2,0,0.4,0,0.5
			c0.1,0.1,0.2,0.2,0.3,0.2c0.1,0,0.3,0.1,0.5,0c0.2,0,0.4,0,0.6-0.1C6,21,6.3,20.9,6.7,20.7c0.7-0.3,1.5-0.6,2.2-0.9
			c1.4-0.7,2.8-1.4,4.2-2.2c1.4-0.8,2.8-1.6,4.1-2.4c1.4-0.8,2.7-1.7,4-2.6c1.3-0.9,2.6-1.8,3.9-2.7c0.6-0.5,1.3-1,1.9-1.4
			c0.6-0.5,1.2-1,1.7-1.6c0.1-0.1,0.2-0.3,0.3-0.4c0-0.1,0.1-0.2,0.1-0.2c0-0.1,0-0.1,0-0.1C29.1,6,29.1,6,29,6c-0.1,0-0.2,0-0.3,0
			c-0.2,0-0.4,0-0.6,0c-0.4,0-0.8,0.1-1.2,0.2c-0.4,0.1-0.8,0.2-1.2,0.3c0.7-0.3,1.5-0.6,2.3-0.8c0.2,0,0.4-0.1,0.6-0.1
			c0.1,0,0.2,0,0.3,0c0.1,0,0.2,0.1,0.4,0.2c0.1,0.1,0.1,0.1,0.1,0.2c0,0.1,0,0.2,0,0.2c0,0.1-0.1,0.3-0.1,0.4
			c-0.1,0.2-0.2,0.4-0.3,0.6c-0.2,0.3-0.5,0.6-0.8,0.9c-0.3,0.3-0.6,0.6-0.9,0.8c-0.6,0.5-1.2,1.1-1.8,1.6c-0.6,0.5-1.3,1-1.9,1.5
			c-0.6,0.5-1.3,0.9-2,1.4c-1.3,0.9-2.7,1.8-4,2.6c-2.7,1.7-5.5,3.2-8.5,4.5c-0.7,0.3-1.5,0.6-2.3,0.8c-0.4,0.1-0.8,0.2-1.2,0.3
			c-0.2,0-0.4,0.1-0.6,0c-0.2,0-0.4,0-0.7-0.1c-0.1,0-0.2-0.1-0.3-0.2c-0.1-0.1-0.2-0.2-0.2-0.3c-0.1-0.3,0-0.5,0-0.7
			c0.1-0.4,0.3-0.8,0.5-1.1C4.7,18.5,5.2,17.8,5.8,17.2"/>
		<path fill="#A6A8AC" d="M6,26.9c-0.3,0.4-0.5,0.8-0.7,1.1c-0.2,0.4-0.4,0.8-0.6,1.2c-0.1,0.2-0.1,0.4-0.2,0.6c0,0.2,0,0.4,0.1,0.5
			c0.1,0.1,0.3,0.2,0.5,0.2c0.2,0,0.4,0,0.6,0c0.4-0.1,0.8-0.2,1.3-0.4c0.4-0.1,0.8-0.3,1.2-0.5c0.8-0.4,1.6-0.8,2.4-1.2
			c1.6-0.8,3.2-1.7,4.7-2.6c1.6-0.9,3.1-1.9,4.6-2.8c1.5-1,3-2,4.5-3c1.5-1,3-2,4.4-3.1c0.7-0.5,1.4-1.1,2.2-1.6
			c0.7-0.6,1.4-1.1,2-1.8c0.3-0.3,0.6-0.6,0.9-1c0.1-0.1,0.1-0.2,0.1-0.3c0-0.1,0-0.2,0-0.2c0,0-0.1-0.1-0.2-0.1c-0.1,0-0.2,0-0.3,0
			c-0.4,0-0.9,0.1-1.3,0.2c-0.4,0.1-0.9,0.2-1.3,0.3c0.4-0.2,0.8-0.3,1.3-0.5c0.4-0.1,0.9-0.3,1.4-0.3c0.1,0,0.2,0,0.4,0
			c0.1,0,0.1,0,0.2,0.1c0.1,0,0.1,0.1,0.2,0.2c0,0.1,0.1,0.2,0.1,0.2c0,0.1,0,0.1,0,0.2c0,0.1-0.1,0.2-0.1,0.4
			c-0.2,0.4-0.5,0.8-0.8,1.1c-1.3,1.4-2.7,2.5-4.1,3.7c-0.7,0.6-1.4,1.1-2.2,1.7c-0.7,0.5-1.5,1.1-2.2,1.6c-1.5,1-3,2-4.5,3
			c-3.1,1.9-6.2,3.8-9.5,5.3c-0.8,0.4-1.7,0.8-2.5,1.1c-0.4,0.2-0.9,0.3-1.3,0.4c-0.4,0.1-0.9,0.2-1.4,0.3c-0.2,0-0.5,0-0.7,0
			c-0.1,0-0.3,0-0.4-0.1c-0.1-0.1-0.3-0.2-0.3-0.3c-0.1-0.1-0.1-0.3-0.1-0.4c0-0.1,0-0.3,0-0.4c0.1-0.2,0.1-0.5,0.3-0.7
			C4.9,28.3,5.4,27.6,6,26.9"/>
	</g>
</g>
</svg>
